<svg xmlns="http://www.w3.org/2000/svg" viewBox="0 0 1600 2000" width="1600" height="2000" preserveAspectRatio="xMidYMid slice">
  <defs>
    <linearGradient id="base" x1="0" y1="0" x2="0.4" y2="1">
      <stop offset="0" stop-color="#120705"/><stop offset="0.5" stop-color="#0A0B0E"/><stop offset="1" stop-color="#1A0703"/>
    </linearGradient>
    <radialGradient id="g1" cx="0.18" cy="0.14" r="0.8">
      <stop offset="0" stop-color="#FF2C04" stop-opacity="0.38"/>
      <stop offset="0.4" stop-color="#FF2C04" stop-opacity="0.10"/>
      <stop offset="1" stop-color="#FF2C04" stop-opacity="0"/>
    </radialGradient>
    <radialGradient id="g2" cx="0.88" cy="0.9" r="0.65">
      <stop offset="0" stop-color="#FF2C04" stop-opacity="0.26"/><stop offset="1" stop-color="#FF2C04" stop-opacity="0"/>
    </radialGradient>
    <pattern id="grade" width="52" height="52" patternUnits="userSpaceOnUse">
      <path d="M52 0H0V52" fill="none" stroke="rgba(255,44,4,0.09)" stroke-width="1"/>
    </pattern>
    <pattern id="pontos" width="13" height="13" patternUnits="userSpaceOnUse">
      <circle cx="1" cy="1" r="1" fill="rgba(255,255,255,0.045)"/>
    </pattern>
  </defs>
  <rect width="1600" height="2000" fill="url(#base)"/>
  <rect width="1600" height="2000" fill="url(#pontos)"/>
  <rect width="1600" height="2000" fill="url(#grade)"/>
  <g><polyline points="-50,-147 -28,-144 -6,-141 16,-138 38,-135 60,-132 82,-129 104,-126 126,-124 148,-121 170,-119 192,-117 214,-115 236,-114 258,-112 280,-111 302,-110 324,-110 346,-110 368,-110 390,-110 412,-110 434,-111 456,-111 478,-112 500,-113 522,-114 544,-115 566,-116 588,-117 610,-118 632,-118 654,-119 676,-120 698,-120 720,-121 742,-121 764,-121 786,-121 808,-121 830,-121 852,-121 874,-120 896,-120 918,-119 940,-119 962,-118 984,-118 1006,-118 1028,-117 1050,-117 1072,-117 1094,-117 1116,-118 1138,-118 1160,-119 1182,-120 1204,-121 1226,-123 1248,-125 1270,-127 1292,-129 1314,-131 1336,-133 1358,-136 1380,-139 1402,-142 1424,-145 1446,-148 1468,-151 1490,-154 1512,-156 1534,-159 1556,-162 1578,-164 1600,-167 1622,-169 1644,-171" fill="none" stroke="rgba(255,44,4,0.26)" stroke-width="1.3"/><polyline points="-50,-83 -28,-80 -6,-77 16,-74 38,-71 60,-69 82,-66 104,-64 126,-63 148,-62 170,-61 192,-60 214,-60 236,-59 258,-60 280,-60 302,-61 324,-62 346,-63 368,-64 390,-65 412,-67 434,-68 456,-69 478,-71 500,-72 522,-73 544,-74 566,-75 588,-76 610,-77 632,-78 654,-78 676,-78 698,-78 720,-78 742,-78 764,-78 786,-78 808,-77 830,-77 852,-77 874,-77 896,-76 918,-76 940,-76 962,-76 984,-77 1006,-77 1028,-78 1050,-79 1072,-81 1094,-82 1116,-84 1138,-86 1160,-88 1182,-91 1204,-93 1226,-96 1248,-99 1270,-103 1292,-106 1314,-109 1336,-113 1358,-116 1380,-119 1402,-122 1424,-125 1446,-128 1468,-131 1490,-133 1512,-136 1534,-137 1556,-139 1578,-140 1600,-141 1622,-142 1644,-142" fill="none" stroke="rgba(255,255,255,0.075)" stroke-width="1"/><polyline points="-50,-18 -28,-15 -6,-14 16,-12 38,-11 60,-10 82,-9 104,-9 126,-9 148,-10 170,-11 192,-12 214,-13 236,-15 258,-16 280,-18 302,-20 324,-22 346,-24 368,-26 390,-28 412,-29 434,-31 456,-32 478,-34 500,-35 522,-36 544,-36 566,-37 588,-37 610,-38 632,-38 654,-38 676,-38 698,-37 720,-37 742,-37 764,-37 786,-37 808,-37 830,-37 852,-38 874,-38 896,-39 918,-40 940,-41 962,-43 984,-45 1006,-47 1028,-50 1050,-52 1072,-55 1094,-58 1116,-62 1138,-65 1160,-69 1182,-72 1204,-76 1226,-80 1248,-83 1270,-87 1292,-90 1314,-93 1336,-96 1358,-99 1380,-101 1402,-103 1424,-105 1446,-106 1468,-107 1490,-107 1512,-108 1534,-107 1556,-107 1578,-106 1600,-104 1622,-103 1644,-101" fill="none" stroke="rgba(255,255,255,0.075)" stroke-width="1"/><polyline points="-50,40 -28,41 -6,40 16,40 38,39 60,38 82,36 104,34 126,32 148,30 170,27 192,25 214,22 236,20 258,17 280,15 302,13 324,11 346,9 368,7 390,6 412,4 434,3 456,2 478,2 500,1 522,1 544,1 566,1 588,1 610,1 632,1 654,1 676,1 698,1 720,0 742,-1 764,-1 786,-2 808,-4 830,-6 852,-7 874,-10 896,-12 918,-15 940,-18 962,-22 984,-25 1006,-29 1028,-32 1050,-36 1072,-40 1094,-44 1116,-48 1138,-52 1160,-55 1182,-58 1204,-61 1226,-64 1248,-67 1270,-69 1292,-70 1314,-71 1336,-72 1358,-72 1380,-72 1402,-72 1424,-71 1446,-69 1468,-67 1490,-65 1512,-63 1534,-60 1556,-57 1578,-54 1600,-51 1622,-48 1644,-44" fill="none" stroke="rgba(255,44,4,0.55)" stroke-width="1.8"/><polyline points="-50,85 -28,83 -6,80 16,78 38,75 60,72 82,69 104,65 126,62 148,59 170,56 192,53 214,51 236,48 258,46 280,44 302,42 324,41 346,40 368,39 390,38 412,38 434,38 456,37 478,37 500,37 522,37 544,37 566,37 588,36 610,36 632,35 654,34 676,32 698,31 720,29 742,27 764,24 786,21 808,18 830,15 852,11 874,7 896,3 918,-1 940,-5 962,-9 984,-13 1006,-16 1028,-20 1050,-23 1072,-26 1094,-29 1116,-31 1138,-33 1160,-34 1182,-35 1204,-36 1226,-36 1248,-35 1270,-34 1292,-32 1314,-30 1336,-28 1358,-25 1380,-22 1402,-18 1424,-15 1446,-11 1468,-7 1490,-3 1512,1 1534,5 1556,8 1578,12 1600,15 1622,19 1644,21" fill="none" stroke="rgba(255,44,4,0.26)" stroke-width="1.3"/><polyline points="-50,115 -28,111 -6,107 16,103 38,99 60,96 82,92 104,89 126,86 148,83 170,81 192,79 214,77 236,76 258,75 280,74 302,73 324,73 346,72 368,72 390,72 412,72 434,72 456,71 478,71 500,70 522,69 544,68 566,67 588,65 610,63 632,60 654,57 676,54 698,51 720,47 742,44 764,40 786,36 808,32 830,28 852,24 874,20 896,16 918,13 940,10 962,8 984,6 1006,4 1028,3 1050,3 1072,3 1094,3 1116,4 1138,6 1160,8 1182,11 1204,14 1226,18 1248,22 1270,26 1292,30 1314,35 1336,40 1358,44 1380,49 1402,53 1424,58 1446,62 1468,65 1490,69 1512,72 1534,75 1556,77 1578,79 1600,81 1622,82 1644,83" fill="none" stroke="rgba(255,255,255,0.075)" stroke-width="1"/><polyline points="-50,135 -28,131 -6,127 16,123 38,120 60,117 82,115 104,112 126,111 148,109 170,108 192,107 214,107 236,106 258,106 280,106 302,106 324,106 346,105 368,105 390,104 412,103 434,102 456,101 478,99 500,97 522,94 544,91 566,88 588,85 610,81 632,77 654,74 676,70 698,66 720,62 742,58 764,55 786,52 808,49 830,47 852,45 874,44 896,43 918,43 940,44 962,45 984,46 1006,49 1028,52 1050,55 1072,59 1094,64 1116,68 1138,73 1160,78 1182,84 1204,89 1226,94 1248,99 1270,104 1292,109 1314,113 1336,117 1358,121 1380,124 1402,127 1424,129 1446,131 1468,133 1490,134 1512,135 1534,135 1556,135 1578,136 1600,135 1622,135 1644,135" fill="none" stroke="rgba(255,255,255,0.075)" stroke-width="1"/><polyline points="-50,153 -28,150 -6,147 16,145 38,143 60,142 82,141 104,140 126,140 148,140 170,139 192,139 214,139 236,139 258,139 280,139 302,138 324,137 346,136 368,134 390,132 412,129 434,127 456,124 478,121 500,117 522,113 544,110 566,106 588,102 610,99 632,96 654,93 676,90 698,88 720,87 742,86 764,85 786,86 808,87 830,88 852,91 874,94 896,97 918,101 940,106 962,111 984,117 1006,122 1028,128 1050,134 1072,140 1094,145 1116,151 1138,156 1160,161 1182,166 1204,170 1226,174 1248,177 1270,179 1292,182 1314,183 1336,184 1358,185 1380,186 1402,186 1424,186 1446,185 1468,185 1490,184 1512,184 1534,183 1556,183 1578,183 1600,183 1622,184 1644,185" fill="none" stroke="rgba(255,255,255,0.075)" stroke-width="1"/><polyline points="-50,176 -28,175 -6,174 16,174 38,173 60,173 82,174 104,174 126,174 148,174 170,174 192,173 214,173 236,172 258,171 280,169 302,167 324,165 346,162 368,159 390,156 412,152 434,149 456,146 478,142 500,139 522,137 544,134 566,132 588,131 610,130 632,130 654,131 676,132 698,134 720,137 742,140 764,144 786,149 808,154 830,160 852,166 874,172 896,178 918,185 940,191 962,197 984,203 1006,208 1028,214 1050,218 1072,222 1094,226 1116,229 1138,231 1160,233 1182,234 1204,235 1226,235 1248,235 1270,235 1292,234 1314,233 1336,232 1358,231 1380,230 1402,230 1424,229 1446,229 1468,229 1490,230 1512,230 1534,232 1556,233 1578,235 1600,237 1622,239 1644,241" fill="none" stroke="rgba(255,44,4,0.26)" stroke-width="1.3"/><polyline points="-50,208 -28,208 -6,209 16,209 38,210 60,210 82,210 104,210 126,210 148,209 170,208 192,207 214,205 236,203 258,200 280,197 302,194 324,192 346,189 368,186 390,183 412,181 434,179 456,178 478,177 500,177 522,177 544,179 566,181 588,184 610,187 632,192 654,196 676,202 698,208 720,214 742,221 764,228 786,234 808,241 830,247 852,254 874,259 896,264 918,269 940,273 962,276 984,279 1006,281 1028,282 1050,283 1072,283 1094,283 1116,282 1138,281 1160,280 1182,279 1204,277 1226,276 1248,275 1270,274 1292,273 1314,273 1336,273 1358,273 1380,274 1402,275 1424,276 1446,277 1468,279 1490,281 1512,283 1534,284 1556,286 1578,287 1600,288 1622,288 1644,288" fill="none" stroke="rgba(255,255,255,0.075)" stroke-width="1"/><polyline points="-50,247 -28,248 -6,248 16,249 38,249 60,249 82,248 104,247 126,245 148,244 170,242 192,239 214,237 236,234 258,232 280,230 302,228 324,226 346,225 368,225 390,225 412,226 434,228 456,231 478,234 500,238 522,243 544,249 566,255 588,261 610,268 632,275 654,282 676,289 698,295 720,302 742,307 764,313 786,317 808,321 830,325 852,327 874,329 896,330 918,330 940,330 962,329 984,327 1006,326 1028,324 1050,322 1072,320 1094,318 1116,317 1138,315 1160,314 1182,314 1204,313 1226,313 1248,314 1270,315 1292,316 1314,317 1336,318 1358,319 1380,321 1402,322 1424,322 1446,322 1468,322 1490,321 1512,320 1534,317 1556,314 1578,311 1600,306 1622,301 1644,295" fill="none" stroke="rgba(255,255,255,0.075)" stroke-width="1"/><polyline points="-50,290 -28,290 -6,290 16,290 38,289 60,288 82,286 104,284 126,283 148,281 170,279 192,277 214,276 236,275 258,275 280,275 302,276 324,278 346,281 368,284 390,288 412,293 434,299 456,305 478,312 500,319 522,326 544,333 566,340 588,346 610,352 632,358 654,362 676,366 698,370 720,372 742,374 764,374 786,374 808,374 830,372 852,371 874,369 896,366 918,364 940,361 962,359 984,357 1006,355 1028,353 1050,352 1072,352 1094,352 1116,352 1138,352 1160,353 1182,354 1204,355 1226,355 1248,356 1270,356 1292,356 1314,355 1336,354 1358,352 1380,349 1402,346 1424,341 1446,337 1468,331 1490,325 1512,319 1534,312 1556,306 1578,299 1600,292 1622,286 1644,280" fill="none" stroke="rgba(255,44,4,0.55)" stroke-width="1.8"/><polyline points="-50,334 -28,334 -6,333 16,332 38,330 60,329 82,328 104,326 126,325 148,325 170,325 192,326 214,327 236,330 258,333 280,337 302,341 324,347 346,353 368,359 390,366 412,373 434,380 456,386 478,393 500,399 522,404 544,408 566,412 588,414 610,416 632,417 654,417 676,416 698,415 720,413 742,410 764,407 786,404 808,401 830,398 852,396 874,393 896,391 918,390 940,389 962,388 984,388 1006,388 1028,388 1050,389 1072,389 1094,390 1116,390 1138,389 1160,389 1182,387 1204,385 1226,382 1248,379 1270,375 1292,370 1314,364 1336,359 1358,352 1380,346 1402,339 1424,333 1446,327 1468,321 1490,317 1512,312 1534,309 1556,306 1578,305 1600,304 1622,305 1644,306" fill="none" stroke="rgba(255,44,4,0.26)" stroke-width="1.3"/><polyline points="-50,379 -28,378 -6,377 16,376 38,376 60,375 82,376 104,377 126,378 148,380 170,383 192,387 214,392 236,397 258,403 280,409 302,416 324,422 346,429 368,435 390,441 412,446 434,450 456,453 478,456 500,457 522,458 544,457 566,456 588,454 610,452 632,448 654,445 676,442 698,438 720,435 742,432 764,429 786,427 808,425 830,424 852,424 874,423 896,423 918,423 940,423 962,424 984,423 1006,423 1028,422 1050,420 1072,418 1094,415 1116,411 1138,407 1160,402 1182,396 1204,390 1226,384 1248,378 1270,373 1292,367 1314,362 1336,358 1358,354 1380,352 1402,350 1424,350 1446,350 1468,352 1490,354 1512,357 1534,361 1556,365 1578,369 1600,374 1622,379 1644,383" fill="none" stroke="rgba(255,255,255,0.075)" stroke-width="1"/><polyline points="-50,426 -28,426 -6,426 16,426 38,427 60,429 82,432 104,435 126,439 148,444 170,449 192,455 214,461 236,467 258,473 280,479 302,484 324,488 346,492 368,494 390,496 412,497 434,496 456,495 478,493 500,490 522,487 544,483 566,479 588,475 610,472 632,468 654,465 676,463 698,461 720,460 742,459 764,458 786,458 808,458 830,458 852,458 874,457 896,456 918,455 940,453 962,450 984,447 1006,442 1028,438 1050,433 1072,428 1094,422 1116,417 1138,412 1160,407 1182,403 1204,400 1226,398 1248,397 1270,397 1292,398 1314,400 1336,402 1358,406 1380,410 1402,415 1424,420 1446,424 1468,429 1490,434 1512,438 1534,441 1556,444 1578,447 1600,448 1622,449 1644,450" fill="none" stroke="rgba(255,255,255,0.075)" stroke-width="1"/><polyline points="-50,476 -28,477 -6,479 16,481 38,484 60,488 82,493 104,498 126,503 148,508 170,514 192,519 214,523 236,527 258,530 280,533 302,534 324,534 346,533 368,531 390,529 412,526 434,522 456,518 478,514 500,510 522,506 544,503 566,500 588,498 610,496 632,495 654,494 676,494 698,494 720,494 742,493 764,493 786,492 808,490 830,488 852,486 874,482 896,479 918,474 940,470 962,465 984,460 1006,456 1028,452 1050,449 1072,447 1094,445 1116,445 1138,446 1160,447 1182,450 1204,453 1226,457 1248,462 1270,467 1292,472 1314,477 1336,481 1358,485 1380,489 1402,492 1424,494 1446,496 1468,497 1490,497 1512,498 1534,498 1556,498 1578,498 1600,499 1622,499 1644,501" fill="none" stroke="rgba(255,255,255,0.075)" stroke-width="1"/><polyline points="-50,528 -28,531 -6,534 16,538 38,542 60,547 82,551 104,556 126,560 148,564 170,567 192,569 214,570 236,570 258,570 280,568 302,565 324,562 346,559 368,555 390,551 412,547 434,543 456,540 478,537 500,535 522,533 544,532 566,531 588,531 610,531 632,531 654,530 676,530 698,529 720,527 742,525 764,522 786,519 808,515 830,511 852,508 874,504 896,500 918,498 940,496 962,494 984,494 1006,495 1028,496 1050,499 1072,502 1094,506 1116,511 1138,515 1160,520 1182,525 1204,529 1226,533 1248,536 1270,539 1292,541 1314,542 1336,543 1358,543 1380,543 1402,543 1424,543 1446,543 1468,543 1490,544 1512,546 1534,548 1556,550 1578,553 1600,556 1622,559 1644,561" fill="none" stroke="rgba(255,44,4,0.26)" stroke-width="1.3"/><polyline points="-50,580 -28,584 -6,588 16,591 38,595 60,599 82,602 104,604 126,606 148,606 170,606 192,605 214,603 236,600 258,597 280,593 302,589 324,585 346,582 368,578 390,575 412,573 434,572 456,570 478,570 500,569 522,569 544,569 566,569 588,568 610,568 632,566 654,564 676,562 698,559 720,557 742,553 764,550 786,548 808,546 830,544 852,543 874,543 896,544 918,546 940,549 962,552 984,556 1006,560 1028,565 1050,569 1072,573 1094,577 1116,580 1138,583 1160,584 1182,586 1204,586 1226,586 1248,586 1270,586 1292,586 1314,586 1336,586 1358,587 1380,588 1402,589 1424,591 1446,593 1468,595 1490,597 1512,599 1534,601 1556,602 1578,602 1600,601 1622,600 1644,597" fill="none" stroke="rgba(255,255,255,0.075)" stroke-width="1"/><polyline points="-50,630 -28,633 -6,636 16,638 38,640 60,641 82,642 104,642 126,640 148,639 170,636 192,633 214,629 236,626 258,622 280,619 302,616 324,614 346,612 368,611 390,610 412,609 434,609 456,609 478,609 500,609 522,609 544,608 566,607 588,605 610,603 632,601 654,599 676,596 698,594 720,593 742,592 764,592 786,592 808,594 830,596 852,599 874,602 896,606 918,610 940,614 962,617 984,621 1006,624 1028,626 1050,627 1072,628 1094,629 1116,629 1138,628 1160,628 1182,628 1204,627 1226,627 1248,628 1270,628 1292,630 1314,631 1336,632 1358,634 1380,635 1402,636 1424,637 1446,637 1468,636 1490,635 1512,632 1534,629 1556,626 1578,622 1600,618 1622,614 1644,610" fill="none" stroke="rgba(255,255,255,0.075)" stroke-width="1"/><polyline points="-50,675 -28,676 -6,677 16,678 38,678 60,677 82,675 104,673 126,671 148,668 170,665 192,662 214,659 236,656 258,654 280,652 302,651 324,651 346,650 368,650 390,651 412,651 434,651 456,651 478,650 500,649 522,648 544,646 566,645 588,643 610,642 632,641 654,640 676,640 698,640 720,642 742,644 764,646 786,649 808,652 830,655 852,659 874,662 896,665 918,667 940,668 962,669 984,670 1006,670 1028,670 1050,669 1072,669 1094,668 1116,668 1138,668 1160,668 1182,669 1204,669 1226,670 1248,671 1270,672 1292,673 1314,673 1336,673 1358,672 1380,671 1402,669 1424,666 1446,663 1468,660 1490,656 1512,653 1534,650 1556,647 1578,645 1600,643 1622,642 1644,642" fill="none" stroke="rgba(255,44,4,0.55)" stroke-width="1.8"/><polyline points="-50,715 -28,715 -6,714 16,713 38,712 60,710 82,707 104,705 126,702 148,700 170,698 192,696 214,694 236,693 258,693 280,693 302,693 324,693 346,693 368,693 390,693 412,693 434,693 456,692 478,691 500,690 522,689 544,688 566,687 588,687 610,687 632,688 654,689 676,691 698,693 720,696 742,698 764,701 786,703 808,706 830,708 852,709 874,710 896,711 918,711 940,710 962,710 984,709 1006,709 1028,708 1050,708 1072,708 1094,708 1116,708 1138,709 1160,709 1182,710 1204,710 1226,710 1248,710 1270,709 1292,708 1314,706 1336,704 1358,701 1380,699 1402,696 1424,693 1446,691 1468,689 1490,688 1512,687 1534,687 1556,687 1578,687 1600,688 1622,689 1644,691" fill="none" stroke="rgba(255,44,4,0.26)" stroke-width="1.3"/><polyline points="-50,752 -28,751 -6,750 16,748 38,746 60,744 82,742 104,740 126,738 148,737 170,736 192,735 214,735 236,735 258,735 280,736 302,736 324,736 346,736 368,736 390,736 412,735 434,735 456,734 478,733 500,733 522,733 544,733 566,734 588,735 610,736 632,738 654,740 676,742 698,744 720,746 742,748 764,749 786,750 808,751 830,751 852,751 874,751 896,750 918,750 940,749 962,748 984,748 1006,748 1028,748 1050,748 1072,748 1094,748 1116,749 1138,749 1160,749 1182,748 1204,747 1226,746 1248,745 1270,743 1292,741 1314,739 1336,737 1358,735 1380,733 1402,732 1424,731 1446,731 1468,731 1490,732 1512,732 1534,733 1556,735 1578,736 1600,736 1622,737 1644,738" fill="none" stroke="rgba(255,255,255,0.075)" stroke-width="1"/><polyline points="-50,789 -28,787 -6,786 16,784 38,782 60,781 82,780 104,779 126,778 148,778 170,778 192,778 214,778 236,779 258,779 280,779 302,779 324,779 346,779 368,779 390,778 412,778 434,778 456,778 478,778 500,778 522,779 544,779 566,781 588,782 610,784 632,785 654,787 676,789 698,790 720,791 742,792 764,792 786,792 808,792 830,791 852,791 874,790 896,789 918,789 940,788 962,788 984,788 1006,788 1028,788 1050,788 1072,788 1094,788 1116,788 1138,788 1160,787 1182,786 1204,784 1226,783 1248,781 1270,779 1292,778 1314,777 1336,776 1358,775 1380,775 1402,775 1424,775 1446,776 1468,777 1490,778 1512,779 1534,780 1556,781 1578,781 1600,782 1622,782 1644,782" fill="none" stroke="rgba(255,255,255,0.075)" stroke-width="1"/><polyline points="-50,826 -28,825 -6,824 16,822 38,821 60,821 82,820 104,820 126,820 148,820 170,821 192,821 214,821 236,822 258,822 280,822 302,822 324,822 346,822 368,821 390,821 412,821 434,821 456,822 478,822 500,823 522,824 544,825 566,827 588,828 610,830 632,831 654,832 676,833 698,833 720,833 742,833 764,833 786,832 808,832 830,831 852,830 874,830 896,829 918,829 940,829 962,829 984,829 1006,829 1028,829 1050,829 1072,829 1094,828 1116,827 1138,827 1160,825 1182,824 1204,823 1226,822 1248,820 1270,819 1292,819 1314,818 1336,818 1358,818 1380,818 1402,819 1424,820 1446,821 1468,822 1490,823 1512,823 1534,824 1556,825 1578,825 1600,825 1622,825 1644,825" fill="none" stroke="rgba(255,255,255,0.075)" stroke-width="1"/><polyline points="-50,864 -28,863 -6,862 16,862 38,861 60,861 82,862 104,862 126,862 148,863 170,863 192,864 214,864 236,864 258,864 280,864 302,864 324,864 346,864 368,864 390,864 412,864 434,865 456,866 478,867 500,868 522,869 544,871 566,872 588,873 610,874 632,875 654,875 676,876 698,876 720,875 742,875 764,874 786,873 808,872 830,872 852,871 874,871 896,870 918,870 940,870 962,870 984,870 1006,870 1028,870 1050,870 1072,869 1094,868 1116,867 1138,866 1160,865 1182,864 1204,863 1226,862 1248,861 1270,860 1292,860 1314,860 1336,860 1358,861 1380,861 1402,862 1424,863 1446,864 1468,865 1490,866 1512,867 1534,867 1556,868 1578,868 1600,868 1622,868 1644,868" fill="none" stroke="rgba(255,44,4,0.26)" stroke-width="1.3"/><polyline points="-50,903 -28,902 -6,902 16,902 38,902 60,903 82,903 104,904 126,905 148,905 170,906 192,906 214,907 236,907 258,907 280,906 302,906 324,906 346,907 368,907 390,907 412,908 434,909 456,910 478,912 500,913 522,915 544,916 566,917 588,918 610,919 632,919 654,919 676,919 698,918 720,917 742,917 764,916 786,915 808,914 830,913 852,912 874,912 896,912 918,911 940,911 962,911 984,911 1006,911 1028,911 1050,910 1072,910 1094,909 1116,908 1138,907 1160,905 1182,904 1204,903 1226,902 1248,901 1270,901 1292,901 1314,901 1336,901 1358,902 1380,903 1402,904 1424,905 1446,907 1468,908 1490,909 1512,910 1534,910 1556,911 1578,911 1600,911 1622,911 1644,911" fill="none" stroke="rgba(255,255,255,0.075)" stroke-width="1"/><polyline points="-50,941 -28,942 -6,942 16,943 38,944 60,945 82,946 104,947 126,948 148,948 170,949 192,949 214,949 236,949 258,949 280,949 302,949 324,949 346,950 368,951 390,952 412,953 434,955 456,956 478,958 500,959 522,961 544,962 566,963 588,964 610,964 632,964 654,963 676,962 698,961 720,960 742,959 764,957 786,956 808,955 830,954 852,953 874,953 896,953 918,952 940,952 962,952 984,952 1006,952 1028,952 1050,951 1072,950 1094,949 1116,948 1138,947 1160,945 1182,944 1204,943 1226,942 1248,941 1270,940 1292,940 1314,940 1336,941 1358,942 1380,943 1402,945 1424,946 1446,948 1468,950 1490,951 1512,952 1534,953 1556,954 1578,954 1600,955 1622,955 1644,955" fill="none" stroke="rgba(255,255,255,0.075)" stroke-width="1"/><polyline points="-50,982 -28,983 -6,984 16,986 38,987 60,988 82,990 104,990 126,991 148,991 170,991 192,991 214,991 236,992 258,992 280,992 302,993 324,994 346,995 368,996 390,998 412,1000 434,1002 456,1003 478,1005 500,1007 522,1008 544,1009 566,1009 588,1009 610,1009 632,1008 654,1007 676,1005 698,1004 720,1002 742,1000 764,999 786,997 808,996 830,995 852,994 874,993 896,993 918,993 940,993 962,993 984,992 1006,992 1028,992 1050,991 1072,990 1094,989 1116,988 1138,986 1160,985 1182,983 1204,982 1226,981 1248,980 1270,979 1292,979 1314,979 1336,980 1358,981 1380,983 1402,984 1424,986 1446,988 1468,991 1490,992 1512,994 1534,996 1556,997 1578,998 1600,999 1622,999 1644,999" fill="none" stroke="rgba(255,44,4,0.55)" stroke-width="1.8"/><polyline points="-50,1026 -28,1028 -6,1030 16,1031 38,1032 60,1033 82,1034 104,1035 126,1035 148,1035 170,1035 192,1035 214,1035 236,1036 258,1036 280,1037 302,1039 324,1040 346,1042 368,1044 390,1046 412,1048 434,1050 456,1052 478,1054 500,1055 522,1056 544,1056 566,1056 588,1055 610,1054 632,1052 654,1050 676,1048 698,1045 720,1043 742,1041 764,1039 786,1037 808,1035 830,1034 852,1033 874,1032 896,1032 918,1032 940,1032 962,1032 984,1032 1006,1032 1028,1031 1050,1031 1072,1030 1094,1028 1116,1027 1138,1026 1160,1024 1182,1022 1204,1021 1226,1019 1248,1018 1270,1017 1292,1017 1314,1017 1336,1018 1358,1019 1380,1021 1402,1023 1424,1025 1446,1028 1468,1030 1490,1033 1512,1036 1534,1038 1556,1040 1578,1042 1600,1043 1622,1044 1644,1045" fill="none" stroke="rgba(255,44,4,0.26)" stroke-width="1.3"/><polyline points="-50,1074 -28,1075 -6,1077 16,1078 38,1079 60,1079 82,1080 104,1080 126,1080 148,1080 170,1080 192,1081 214,1081 236,1082 258,1084 280,1085 302,1087 324,1089 346,1092 368,1094 390,1096 412,1098 434,1100 456,1102 478,1103 500,1103 522,1103 544,1102 566,1101 588,1099 610,1097 632,1094 654,1091 676,1088 698,1085 720,1082 742,1080 764,1077 786,1075 808,1073 830,1072 852,1071 874,1070 896,1070 918,1070 940,1070 962,1070 984,1070 1006,1070 1028,1070 1050,1069 1072,1068 1094,1067 1116,1066 1138,1064 1160,1063 1182,1061 1204,1059 1226,1058 1248,1056 1270,1056 1292,1055 1314,1055 1336,1056 1358,1057 1380,1058 1402,1061 1424,1063 1446,1066 1468,1069 1490,1073 1512,1076 1534,1079 1556,1082 1578,1085 1600,1087 1622,1089 1644,1090" fill="none" stroke="rgba(255,255,255,0.075)" stroke-width="1"/><polyline points="-50,1123 -28,1124 -6,1125 16,1125 38,1126 60,1126 82,1126 104,1126 126,1126 148,1127 170,1127 192,1129 214,1130 236,1132 258,1134 280,1136 302,1138 324,1141 346,1143 368,1145 390,1147 412,1149 434,1150 456,1150 478,1150 500,1149 522,1148 544,1146 566,1143 588,1140 610,1137 632,1133 654,1129 676,1126 698,1122 720,1119 742,1116 764,1113 786,1111 808,1109 830,1108 852,1107 874,1107 896,1107 918,1107 940,1107 962,1107 984,1108 1006,1108 1028,1108 1050,1107 1072,1107 1094,1106 1116,1104 1138,1103 1160,1101 1182,1100 1204,1098 1226,1096 1248,1095 1270,1094 1292,1093 1314,1093 1336,1094 1358,1095 1380,1096 1402,1099 1424,1101 1446,1104 1468,1108 1490,1112 1512,1116 1534,1119 1556,1123 1578,1127 1600,1130 1622,1133 1644,1135" fill="none" stroke="rgba(255,255,255,0.075)" stroke-width="1"/><polyline points="-50,1173 -28,1173 -6,1173 16,1173 38,1173 60,1173 82,1173 104,1174 126,1175 148,1176 170,1177 192,1179 214,1181 236,1184 258,1186 280,1188 302,1191 324,1193 346,1194 368,1196 390,1196 412,1197 434,1196 456,1195 478,1193 500,1191 522,1188 544,1185 566,1181 588,1177 610,1172 632,1168 654,1164 676,1160 698,1156 720,1153 742,1150 764,1147 786,1145 808,1144 830,1143 852,1142 874,1142 896,1143 918,1143 940,1144 962,1144 984,1145 1006,1145 1028,1145 1050,1145 1072,1145 1094,1144 1116,1143 1138,1142 1160,1140 1182,1139 1204,1137 1226,1135 1248,1134 1270,1133 1292,1133 1314,1132 1336,1133 1358,1134 1380,1135 1402,1137 1424,1140 1446,1143 1468,1147 1490,1151 1512,1156 1534,1160 1556,1164 1578,1169 1600,1173 1622,1177 1644,1180" fill="none" stroke="rgba(255,255,255,0.075)" stroke-width="1"/><polyline points="-50,1221 -28,1221 -6,1220 16,1221 38,1221 60,1222 82,1223 104,1224 126,1226 148,1228 170,1230 192,1232 214,1234 236,1236 258,1238 280,1240 302,1241 324,1242 346,1242 368,1242 390,1241 412,1239 434,1237 456,1234 478,1231 500,1227 522,1222 544,1218 566,1213 588,1208 610,1203 632,1199 654,1194 676,1190 698,1187 720,1184 742,1181 764,1179 786,1178 808,1177 830,1177 852,1177 874,1177 896,1178 918,1179 940,1180 962,1181 984,1182 1006,1182 1028,1183 1050,1183 1072,1183 1094,1182 1116,1181 1138,1180 1160,1179 1182,1178 1204,1176 1226,1175 1248,1174 1270,1173 1292,1173 1314,1173 1336,1173 1358,1174 1380,1176 1402,1178 1424,1181 1446,1184 1468,1188 1490,1192 1512,1197 1534,1202 1556,1207 1578,1212 1600,1217 1622,1221 1644,1225" fill="none" stroke="rgba(255,44,4,0.26)" stroke-width="1.3"/><polyline points="-50,1268 -28,1268 -6,1269 16,1270 38,1271 60,1272 82,1274 104,1276 126,1278 148,1280 170,1281 192,1283 214,1285 236,1286 258,1286 280,1286 302,1286 324,1285 346,1283 368,1281 390,1278 412,1274 434,1270 456,1266 478,1261 500,1256 522,1250 544,1245 566,1240 588,1235 610,1230 632,1226 654,1222 676,1218 698,1216 720,1214 742,1212 764,1211 786,1211 808,1211 830,1211 852,1212 874,1213 896,1215 918,1216 940,1218 962,1219 984,1220 1006,1221 1028,1221 1050,1222 1072,1222 1094,1221 1116,1221 1138,1220 1160,1219 1182,1218 1204,1217 1226,1216 1248,1215 1270,1215 1292,1214 1314,1215 1336,1215 1358,1217 1380,1219 1402,1221 1424,1224 1446,1228 1468,1232 1490,1236 1512,1241 1534,1246 1556,1251 1578,1257 1600,1262 1622,1267 1644,1272" fill="none" stroke="rgba(255,255,255,0.075)" stroke-width="1"/><polyline points="-50,1316 -28,1317 -6,1318 16,1319 38,1321 60,1323 82,1324 104,1326 126,1327 148,1328 170,1329 192,1329 214,1329 236,1328 258,1326 280,1324 302,1322 324,1318 346,1315 368,1310 390,1305 412,1300 434,1295 456,1289 478,1284 500,1278 522,1273 544,1267 566,1263 588,1258 610,1254 632,1251 654,1249 676,1247 698,1245 720,1244 742,1244 764,1245 786,1245 808,1247 830,1248 852,1250 874,1252 896,1254 918,1256 940,1257 962,1259 984,1260 1006,1261 1028,1262 1050,1262 1072,1262 1094,1262 1116,1262 1138,1261 1160,1261 1182,1260 1204,1259 1226,1258 1248,1258 1270,1258 1292,1258 1314,1259 1336,1260 1358,1262 1380,1264 1402,1267 1424,1270 1446,1274 1468,1279 1490,1283 1512,1289 1534,1294 1556,1299 1578,1305 1600,1310 1622,1315 1644,1320" fill="none" stroke="rgba(255,255,255,0.075)" stroke-width="1"/><polyline points="-50,1364 -28,1365 -6,1366 16,1367 38,1368 60,1369 82,1370 104,1370 126,1369 148,1368 170,1367 192,1365 214,1362 236,1359 258,1356 280,1351 302,1347 324,1342 346,1336 368,1331 390,1325 412,1319 434,1313 456,1308 478,1302 500,1297 522,1293 544,1289 566,1286 588,1283 610,1281 632,1279 654,1278 676,1278 698,1278 720,1279 742,1281 764,1282 786,1284 808,1287 830,1289 852,1291 874,1294 896,1296 918,1298 940,1300 962,1302 984,1303 1006,1304 1028,1305 1050,1305 1072,1306 1094,1305 1116,1305 1138,1305 1160,1304 1182,1304 1204,1303 1226,1303 1248,1304 1270,1304 1292,1305 1314,1306 1336,1308 1358,1310 1380,1313 1402,1316 1424,1320 1446,1325 1468,1329 1490,1334 1512,1340 1534,1345 1556,1350 1578,1356 1600,1361 1622,1366 1644,1371" fill="none" stroke="rgba(255,44,4,0.55)" stroke-width="1.8"/><polyline points="-50,1408 -28,1408 -6,1409 16,1408 38,1408 60,1407 82,1405 104,1403 126,1400 148,1397 170,1393 192,1389 214,1384 236,1379 258,1374 280,1369 302,1363 324,1357 346,1351 368,1345 390,1340 412,1335 434,1330 456,1326 478,1322 500,1319 522,1316 544,1315 566,1313 588,1313 610,1313 632,1313 654,1314 676,1316 698,1318 720,1321 742,1323 764,1326 786,1329 808,1332 830,1335 852,1338 874,1340 896,1343 918,1345 940,1347 962,1348 984,1349 1006,1350 1028,1351 1050,1351 1072,1351 1094,1351 1116,1351 1138,1351 1160,1350 1182,1350 1204,1351 1226,1351 1248,1352 1270,1353 1292,1355 1314,1357 1336,1359 1358,1362 1380,1366 1402,1370 1424,1374 1446,1378 1468,1383 1490,1389 1512,1394 1534,1399 1556,1404 1578,1410 1600,1415 1622,1419 1644,1423" fill="none" stroke="rgba(255,44,4,0.26)" stroke-width="1.3"/><polyline points="-50,1444 -28,1442 -6,1441 16,1438 38,1435 60,1432 82,1428 104,1424 126,1419 148,1414 170,1409 192,1404 214,1398 236,1392 258,1387 280,1381 302,1376 324,1371 346,1366 368,1362 390,1358 412,1355 434,1352 456,1350 478,1349 500,1349 522,1349 544,1349 566,1350 588,1352 610,1354 632,1357 654,1360 676,1363 698,1366 720,1370 742,1373 764,1377 786,1380 808,1383 830,1386 852,1389 874,1391 896,1393 918,1395 940,1396 962,1397 984,1398 1006,1398 1028,1399 1050,1399 1072,1399 1094,1399 1116,1399 1138,1399 1160,1399 1182,1400 1204,1401 1226,1402 1248,1404 1270,1405 1292,1408 1314,1411 1336,1414 1358,1418 1380,1422 1402,1426 1424,1431 1446,1435 1468,1440 1490,1445 1512,1451 1534,1455 1556,1460 1578,1465 1600,1469 1622,1473 1644,1476" fill="none" stroke="rgba(255,255,255,0.075)" stroke-width="1"/><polyline points="-50,1468 -28,1465 -6,1461 16,1457 38,1452 60,1447 82,1442 104,1437 126,1431 148,1426 170,1420 192,1415 214,1410 236,1406 258,1401 280,1397 302,1394 324,1391 346,1389 368,1387 390,1386 412,1386 434,1386 456,1387 478,1389 500,1391 522,1393 544,1396 566,1399 588,1403 610,1406 632,1410 654,1414 676,1418 698,1422 720,1426 742,1429 764,1432 786,1435 808,1438 830,1440 852,1442 874,1444 896,1445 918,1446 940,1447 962,1448 984,1448 1006,1448 1028,1448 1050,1449 1072,1449 1094,1449 1116,1449 1138,1450 1160,1451 1182,1452 1204,1454 1226,1456 1248,1458 1270,1461 1292,1464 1314,1468 1336,1472 1358,1476 1380,1480 1402,1485 1424,1489 1446,1494 1468,1499 1490,1503 1512,1508 1534,1512 1556,1515 1578,1519 1600,1522 1622,1524 1644,1526" fill="none" stroke="rgba(255,255,255,0.075)" stroke-width="1"/><polyline points="-50,1483 -28,1479 -6,1474 16,1469 38,1464 60,1459 82,1454 104,1449 126,1445 148,1441 170,1437 192,1434 214,1431 236,1429 258,1427 280,1426 302,1426 324,1426 346,1427 368,1428 390,1430 412,1432 434,1435 456,1438 478,1442 500,1446 522,1450 544,1454 566,1458 588,1463 610,1467 632,1471 654,1475 676,1478 698,1482 720,1485 742,1488 764,1490 786,1492 808,1494 830,1495 852,1496 874,1497 896,1498 918,1498 940,1498 962,1499 984,1499 1006,1499 1028,1499 1050,1500 1072,1500 1094,1501 1116,1502 1138,1504 1160,1506 1182,1508 1204,1510 1226,1513 1248,1516 1270,1519 1292,1523 1314,1527 1336,1531 1358,1535 1380,1539 1402,1544 1424,1548 1446,1552 1468,1555 1490,1559 1512,1562 1534,1565 1556,1567 1578,1568 1600,1570 1622,1570 1644,1570" fill="none" stroke="rgba(255,255,255,0.075)" stroke-width="1"/><polyline points="-50,1497 -28,1492 -6,1488 16,1484 38,1480 60,1477 82,1474 104,1472 126,1470 148,1469 170,1468 192,1467 214,1468 236,1469 258,1470 280,1472 302,1474 324,1477 346,1481 368,1484 390,1488 412,1493 434,1497 456,1502 478,1506 500,1511 522,1515 544,1519 566,1523 588,1527 610,1531 632,1534 654,1537 676,1540 698,1542 720,1544 742,1545 764,1546 786,1547 808,1548 830,1548 852,1549 874,1549 896,1549 918,1549 940,1549 962,1550 984,1550 1006,1551 1028,1551 1050,1552 1072,1554 1094,1555 1116,1557 1138,1559 1160,1562 1182,1565 1204,1568 1226,1571 1248,1574 1270,1578 1292,1582 1314,1585 1336,1589 1358,1592 1380,1596 1402,1599 1424,1602 1446,1604 1468,1607 1490,1608 1512,1609 1534,1610 1556,1610 1578,1610 1600,1609 1622,1607 1644,1605" fill="none" stroke="rgba(255,44,4,0.26)" stroke-width="1.3"/><polyline points="-50,1519 -28,1516 -6,1514 16,1513 38,1512 60,1512 82,1512 104,1512 126,1513 148,1515 170,1517 192,1520 214,1523 236,1526 258,1530 280,1534 302,1538 324,1543 346,1547 368,1552 390,1557 412,1561 434,1566 456,1570 478,1574 500,1578 522,1582 544,1585 566,1588 588,1590 610,1592 632,1594 654,1595 676,1597 698,1597 720,1598 742,1598 764,1599 786,1599 808,1599 830,1599 852,1599 874,1599 896,1599 918,1599 940,1600 962,1601 984,1602 1006,1603 1028,1604 1050,1606 1072,1608 1094,1610 1116,1613 1138,1615 1160,1618 1182,1621 1204,1624 1226,1628 1248,1631 1270,1634 1292,1636 1314,1639 1336,1642 1358,1644 1380,1645 1402,1647 1424,1648 1446,1648 1468,1648 1490,1648 1512,1647 1534,1645 1556,1643 1578,1640 1600,1637 1622,1634 1644,1630" fill="none" stroke="rgba(255,255,255,0.075)" stroke-width="1"/><polyline points="-50,1558 -28,1558 -6,1559 16,1560 38,1562 60,1565 82,1567 104,1571 126,1574 148,1578 170,1582 192,1587 214,1591 236,1596 258,1600 280,1605 302,1610 324,1614 346,1618 368,1623 390,1626 412,1630 434,1633 456,1636 478,1639 500,1641 522,1643 544,1644 566,1645 588,1646 610,1647 632,1647 654,1647 676,1648 698,1647 720,1647 742,1647 764,1647 786,1647 808,1647 830,1647 852,1647 874,1648 896,1648 918,1649 940,1650 962,1652 984,1653 1006,1655 1028,1657 1050,1659 1072,1662 1094,1664 1116,1667 1138,1669 1160,1672 1182,1674 1204,1676 1226,1678 1248,1680 1270,1682 1292,1683 1314,1684 1336,1684 1358,1685 1380,1684 1402,1683 1424,1682 1446,1680 1468,1678 1490,1675 1512,1672 1534,1668 1556,1664 1578,1660 1600,1656 1622,1651 1644,1646" fill="none" stroke="rgba(255,255,255,0.075)" stroke-width="1"/><polyline points="-50,1614 -28,1617 -6,1620 16,1624 38,1628 60,1632 82,1636 104,1641 126,1645 148,1650 170,1654 192,1659 214,1663 236,1667 258,1671 280,1675 302,1678 324,1682 346,1684 368,1687 390,1689 412,1691 434,1692 456,1693 478,1694 500,1695 522,1695 544,1695 566,1695 588,1694 610,1694 632,1694 654,1693 676,1693 698,1693 720,1692 742,1692 764,1692 786,1693 808,1693 830,1694 852,1694 874,1696 896,1697 918,1698 940,1700 962,1702 984,1704 1006,1706 1028,1707 1050,1709 1072,1711 1094,1713 1116,1715 1138,1716 1160,1718 1182,1718 1204,1719 1226,1719 1248,1719 1270,1719 1292,1718 1314,1717 1336,1715 1358,1713 1380,1710 1402,1707 1424,1704 1446,1700 1468,1696 1490,1692 1512,1687 1534,1683 1556,1678 1578,1673 1600,1668 1622,1663 1644,1659" fill="none" stroke="rgba(255,44,4,0.55)" stroke-width="1.8"/><polyline points="-50,1682 -28,1687 -6,1691 16,1695 38,1700 60,1704 82,1708 104,1712 126,1716 148,1720 170,1723 192,1726 214,1729 236,1732 258,1734 280,1736 302,1737 324,1739 346,1740 368,1740 390,1740 412,1741 434,1740 456,1740 478,1740 500,1739 522,1738 544,1738 566,1737 588,1737 610,1736 632,1736 654,1735 676,1735 698,1735 720,1736 742,1736 764,1737 786,1737 808,1738 830,1740 852,1741 874,1742 896,1744 918,1745 940,1747 962,1748 984,1749 1006,1750 1028,1752 1050,1752 1072,1753 1094,1753 1116,1753 1138,1753 1160,1752 1182,1751 1204,1750 1226,1748 1248,1746 1270,1743 1292,1740 1314,1737 1336,1734 1358,1730 1380,1726 1402,1722 1424,1717 1446,1713 1468,1708 1490,1704 1512,1699 1534,1695 1556,1691 1578,1687 1600,1683 1622,1680 1644,1677" fill="none" stroke="rgba(255,44,4,0.26)" stroke-width="1.3"/><polyline points="-50,1753 -28,1756 -6,1760 16,1764 38,1767 60,1770 82,1773 104,1775 126,1778 148,1780 170,1781 192,1782 214,1783 236,1784 258,1784 280,1784 302,1784 324,1784 346,1783 368,1783 390,1782 412,1781 434,1780 456,1779 478,1779 500,1778 522,1777 544,1777 566,1776 588,1776 610,1776 632,1776 654,1776 676,1777 698,1777 720,1778 742,1779 764,1780 786,1781 808,1782 830,1783 852,1784 874,1785 896,1785 918,1786 940,1787 962,1787 984,1787 1006,1786 1028,1786 1050,1785 1072,1784 1094,1782 1116,1780 1138,1778 1160,1776 1182,1773 1204,1770 1226,1766 1248,1763 1270,1759 1292,1755 1314,1751 1336,1747 1358,1743 1380,1739 1402,1735 1424,1731 1446,1728 1468,1724 1490,1721 1512,1718 1534,1715 1556,1713 1578,1711 1600,1709 1622,1708 1644,1707" fill="none" stroke="rgba(255,255,255,0.075)" stroke-width="1"/><polyline points="-50,1815 -28,1818 -6,1820 16,1822 38,1823 60,1824 82,1825 104,1826 126,1826 148,1826 170,1826 192,1826 214,1825 236,1825 258,1824 280,1823 302,1822 324,1821 346,1820 368,1819 390,1818 412,1817 434,1816 456,1816 478,1815 500,1815 522,1815 544,1815 566,1815 588,1815 610,1815 632,1816 654,1816 676,1817 698,1818 720,1818 742,1819 764,1820 786,1820 808,1820 830,1820 852,1820 874,1820 896,1820 918,1819 940,1818 962,1816 984,1815 1006,1813 1028,1811 1050,1808 1072,1806 1094,1803 1116,1800 1138,1796 1160,1793 1182,1789 1204,1786 1226,1782 1248,1779 1270,1775 1292,1772 1314,1769 1336,1766 1358,1763 1380,1760 1402,1758 1424,1756 1446,1754 1468,1753 1490,1752 1512,1751 1534,1751 1556,1750 1578,1751 1600,1751 1622,1752 1644,1753" fill="none" stroke="rgba(255,255,255,0.075)" stroke-width="1"/><polyline points="-50,1866 -28,1866 -6,1867 16,1867 38,1867 60,1866 82,1866 104,1865 126,1864 148,1863 170,1862 192,1861 214,1860 236,1859 258,1858 280,1857 302,1856 324,1855 346,1854 368,1853 390,1853 412,1852 434,1852 456,1852 478,1852 500,1852 522,1852 544,1853 566,1853 588,1854 610,1854 632,1854 654,1854 676,1855 698,1855 720,1855 742,1854 764,1854 786,1853 808,1852 830,1851 852,1850 874,1848 896,1846 918,1844 940,1842 962,1839 984,1837 1006,1834 1028,1831 1050,1828 1072,1825 1094,1822 1116,1819 1138,1816 1160,1813 1182,1810 1204,1808 1226,1805 1248,1803 1270,1801 1292,1800 1314,1798 1336,1797 1358,1797 1380,1796 1402,1796 1424,1796 1446,1796 1468,1797 1490,1798 1512,1799 1534,1800 1556,1802 1578,1803 1600,1805 1622,1807 1644,1809" fill="none" stroke="rgba(255,255,255,0.075)" stroke-width="1"/><polyline points="-50,1905 -28,1905 -6,1904 16,1903 38,1902 60,1901 82,1899 104,1898 126,1897 148,1896 170,1895 192,1894 214,1893 236,1892 258,1891 280,1890 302,1890 324,1889 346,1889 368,1889 390,1889 412,1889 434,1889 456,1889 478,1890 500,1890 522,1890 544,1890 566,1890 588,1890 610,1890 632,1889 654,1889 676,1888 698,1887 720,1886 742,1885 764,1883 786,1881 808,1879 830,1877 852,1875 874,1873 896,1870 918,1868 940,1865 962,1863 984,1860 1006,1858 1028,1855 1050,1853 1072,1851 1094,1849 1116,1848 1138,1846 1160,1845 1182,1844 1204,1843 1226,1843 1248,1843 1270,1843 1292,1843 1314,1844 1336,1844 1358,1845 1380,1847 1402,1848 1424,1850 1446,1851 1468,1853 1490,1854 1512,1856 1534,1858 1556,1859 1578,1861 1600,1863 1622,1864 1644,1865" fill="none" stroke="rgba(255,44,4,0.26)" stroke-width="1.3"/><polyline points="-50,1939 -28,1937 -6,1936 16,1935 38,1934 60,1933 82,1932 104,1931 126,1930 148,1929 170,1928 192,1928 214,1927 236,1927 258,1927 280,1926 302,1926 324,1926 346,1926 368,1926 390,1926 412,1926 434,1926 456,1926 478,1926 500,1926 522,1925 544,1925 566,1924 588,1923 610,1922 632,1921 654,1920 676,1918 698,1917 720,1915 742,1913 764,1911 786,1909 808,1907 830,1905 852,1903 874,1901 896,1899 918,1897 940,1896 962,1894 984,1893 1006,1892 1028,1891 1050,1890 1072,1890 1094,1890 1116,1890 1138,1890 1160,1891 1182,1891 1204,1892 1226,1893 1248,1895 1270,1896 1292,1898 1314,1899 1336,1901 1358,1902 1380,1904 1402,1905 1424,1907 1446,1908 1468,1910 1490,1911 1512,1912 1534,1913 1556,1914 1578,1915 1600,1915 1622,1916 1644,1916" fill="none" stroke="rgba(255,255,255,0.075)" stroke-width="1"/><polyline points="-50,1971 -28,1970 -6,1969 16,1968 38,1967 60,1967 82,1966 104,1965 126,1965 148,1965 170,1965 192,1964 214,1964 236,1964 258,1964 280,1964 302,1964 324,1964 346,1964 368,1964 390,1964 412,1963 434,1963 456,1962 478,1961 500,1960 522,1959 544,1958 566,1957 588,1956 610,1954 632,1953 654,1951 676,1950 698,1948 720,1947 742,1945 764,1944 786,1942 808,1941 830,1940 852,1939 874,1938 896,1938 918,1937 940,1937 962,1937 984,1937 1006,1938 1028,1938 1050,1939 1072,1940 1094,1941 1116,1943 1138,1944 1160,1945 1182,1947 1204,1948 1226,1950 1248,1951 1270,1952 1292,1954 1314,1955 1336,1956 1358,1957 1380,1958 1402,1959 1424,1960 1446,1960 1468,1961 1490,1961 1512,1961 1534,1961 1556,1961 1578,1962 1600,1962 1622,1962 1644,1962" fill="none" stroke="rgba(255,255,255,0.075)" stroke-width="1"/><polyline points="-50,2006 -28,2005 -6,2005 16,2004 38,2004 60,2004 82,2004 104,2003 126,2003 148,2003 170,2003 192,2003 214,2003 236,2003 258,2003 280,2003 302,2002 324,2002 346,2002 368,2001 390,2000 412,2000 434,1999 456,1998 478,1997 500,1996 522,1994 544,1993 566,1992 588,1991 610,1990 632,1989 654,1988 676,1987 698,1986 720,1985 742,1985 764,1984 786,1984 808,1984 830,1984 852,1985 874,1985 896,1986 918,1987 940,1987 962,1988 984,1990 1006,1991 1028,1992 1050,1993 1072,1994 1094,1996 1116,1997 1138,1998 1160,1999 1182,2000 1204,2001 1226,2002 1248,2003 1270,2003 1292,2004 1314,2004 1336,2005 1358,2005 1380,2005 1402,2005 1424,2005 1446,2005 1468,2005 1490,2005 1512,2005 1534,2005 1556,2006 1578,2006 1600,2006 1622,2006 1644,2007" fill="none" stroke="rgba(255,44,4,0.55)" stroke-width="1.8"/></g>
  <g><circle cx="1046" cy="1306" r="48" fill="none" stroke="rgba(255,44,4,0.40)" stroke-width="1.4"/><circle cx="1046" cy="1306" r="2.5" fill="rgba(255,44,4,0.75)"/><line x1="980" y1="1306" x2="993" y2="1306" stroke="rgba(255,44,4,0.40)" stroke-width="1.4"/><line x1="1099" y1="1306" x2="1112" y2="1306" stroke="rgba(255,44,4,0.40)" stroke-width="1.4"/><line x1="1046" y1="1240" x2="1046" y2="1253" stroke="rgba(255,44,4,0.40)" stroke-width="1.4"/><circle cx="1322" cy="548" r="26" fill="none" stroke="rgba(255,44,4,0.50)" stroke-width="1.4"/><circle cx="1322" cy="548" r="2.5" fill="rgba(255,44,4,0.85)"/><circle cx="1094" cy="1449" r="26" fill="none" stroke="rgba(255,44,4,0.31)" stroke-width="1.4"/><circle cx="1094" cy="1449" r="2.5" fill="rgba(255,44,4,0.66)"/><line x1="1050" y1="1449" x2="1063" y2="1449" stroke="rgba(255,44,4,0.31)" stroke-width="1.4"/><line x1="1125" y1="1449" x2="1138" y2="1449" stroke="rgba(255,44,4,0.31)" stroke-width="1.4"/><line x1="1094" y1="1405" x2="1094" y2="1418" stroke="rgba(255,44,4,0.31)" stroke-width="1.4"/><circle cx="741" cy="450" r="18" fill="none" stroke="rgba(255,44,4,0.43)" stroke-width="1.4"/><circle cx="741" cy="450" r="2.5" fill="rgba(255,44,4,0.78)"/><circle cx="1419" cy="245" r="48" fill="none" stroke="rgba(255,44,4,0.54)" stroke-width="1.4"/><circle cx="1419" cy="245" r="2.5" fill="rgba(255,44,4,0.89)"/><line x1="1353" y1="245" x2="1366" y2="245" stroke="rgba(255,44,4,0.54)" stroke-width="1.4"/><line x1="1472" y1="245" x2="1485" y2="245" stroke="rgba(255,44,4,0.54)" stroke-width="1.4"/><line x1="1419" y1="179" x2="1419" y2="192" stroke="rgba(255,44,4,0.54)" stroke-width="1.4"/><circle cx="1459" cy="1673" r="26" fill="none" stroke="rgba(255,44,4,0.45)" stroke-width="1.4"/><circle cx="1459" cy="1673" r="2.5" fill="rgba(255,44,4,0.80)"/><circle cx="1202" cy="289" r="18" fill="none" stroke="rgba(255,44,4,0.29)" stroke-width="1.4"/><circle cx="1202" cy="289" r="2.5" fill="rgba(255,44,4,0.64)"/><line x1="1166" y1="289" x2="1179" y2="289" stroke="rgba(255,44,4,0.29)" stroke-width="1.4"/><line x1="1225" y1="289" x2="1238" y2="289" stroke="rgba(255,44,4,0.29)" stroke-width="1.4"/><line x1="1202" y1="253" x2="1202" y2="266" stroke="rgba(255,44,4,0.29)" stroke-width="1.4"/><circle cx="615" cy="1388" r="18" fill="none" stroke="rgba(255,44,4,0.49)" stroke-width="1.4"/><circle cx="615" cy="1388" r="2.5" fill="rgba(255,44,4,0.84)"/><circle cx="788" cy="1062" r="26" fill="none" stroke="rgba(255,44,4,0.42)" stroke-width="1.4"/><circle cx="788" cy="1062" r="2.5" fill="rgba(255,44,4,0.77)"/><line x1="744" y1="1062" x2="757" y2="1062" stroke="rgba(255,44,4,0.42)" stroke-width="1.4"/><line x1="819" y1="1062" x2="832" y2="1062" stroke="rgba(255,44,4,0.42)" stroke-width="1.4"/><line x1="788" y1="1018" x2="788" y2="1031" stroke="rgba(255,44,4,0.42)" stroke-width="1.4"/><circle cx="1431" cy="762" r="48" fill="none" stroke="rgba(255,44,4,0.28)" stroke-width="1.4"/><circle cx="1431" cy="762" r="2.5" fill="rgba(255,44,4,0.63)"/><circle cx="294" cy="1096" r="36" fill="none" stroke="rgba(255,44,4,0.39)" stroke-width="1.4"/><circle cx="294" cy="1096" r="2.5" fill="rgba(255,44,4,0.74)"/><line x1="240" y1="1096" x2="253" y2="1096" stroke="rgba(255,44,4,0.39)" stroke-width="1.4"/><line x1="335" y1="1096" x2="348" y2="1096" stroke="rgba(255,44,4,0.39)" stroke-width="1.4"/><line x1="294" y1="1042" x2="294" y2="1055" stroke="rgba(255,44,4,0.39)" stroke-width="1.4"/><circle cx="1248" cy="330" r="36" fill="none" stroke="rgba(255,44,4,0.37)" stroke-width="1.4"/><circle cx="1248" cy="330" r="2.5" fill="rgba(255,44,4,0.72)"/><circle cx="590" cy="1210" r="36" fill="none" stroke="rgba(255,44,4,0.29)" stroke-width="1.4"/><circle cx="590" cy="1210" r="2.5" fill="rgba(255,44,4,0.64)"/><line x1="536" y1="1210" x2="549" y2="1210" stroke="rgba(255,44,4,0.29)" stroke-width="1.4"/><line x1="631" y1="1210" x2="644" y2="1210" stroke="rgba(255,44,4,0.29)" stroke-width="1.4"/><line x1="590" y1="1156" x2="590" y2="1169" stroke="rgba(255,44,4,0.29)" stroke-width="1.4"/><circle cx="1273" cy="1729" r="18" fill="none" stroke="rgba(255,44,4,0.39)" stroke-width="1.4"/><circle cx="1273" cy="1729" r="2.5" fill="rgba(255,44,4,0.74)"/><circle cx="715" cy="951" r="18" fill="none" stroke="rgba(255,44,4,0.54)" stroke-width="1.4"/><circle cx="715" cy="951" r="2.5" fill="rgba(255,44,4,0.89)"/><line x1="679" y1="951" x2="692" y2="951" stroke="rgba(255,44,4,0.54)" stroke-width="1.4"/><line x1="738" y1="951" x2="751" y2="951" stroke="rgba(255,44,4,0.54)" stroke-width="1.4"/><line x1="715" y1="915" x2="715" y2="928" stroke="rgba(255,44,4,0.54)" stroke-width="1.4"/><circle cx="121" cy="597" r="26" fill="none" stroke="rgba(255,44,4,0.53)" stroke-width="1.4"/><circle cx="121" cy="597" r="2.5" fill="rgba(255,44,4,0.88)"/><circle cx="227" cy="1122" r="48" fill="none" stroke="rgba(255,44,4,0.54)" stroke-width="1.4"/><circle cx="227" cy="1122" r="2.5" fill="rgba(255,44,4,0.89)"/><line x1="161" y1="1122" x2="174" y2="1122" stroke="rgba(255,44,4,0.54)" stroke-width="1.4"/><line x1="280" y1="1122" x2="293" y2="1122" stroke="rgba(255,44,4,0.54)" stroke-width="1.4"/><line x1="227" y1="1056" x2="227" y2="1069" stroke="rgba(255,44,4,0.54)" stroke-width="1.4"/><circle cx="933" cy="1019" r="18" fill="none" stroke="rgba(255,44,4,0.43)" stroke-width="1.4"/><circle cx="933" cy="1019" r="2.5" fill="rgba(255,44,4,0.78)"/><circle cx="526" cy="1754" r="36" fill="none" stroke="rgba(255,44,4,0.37)" stroke-width="1.4"/><circle cx="526" cy="1754" r="2.5" fill="rgba(255,44,4,0.72)"/><line x1="472" y1="1754" x2="485" y2="1754" stroke="rgba(255,44,4,0.37)" stroke-width="1.4"/><line x1="567" y1="1754" x2="580" y2="1754" stroke="rgba(255,44,4,0.37)" stroke-width="1.4"/><line x1="526" y1="1700" x2="526" y2="1713" stroke="rgba(255,44,4,0.37)" stroke-width="1.4"/><circle cx="757" cy="841" r="18" fill="none" stroke="rgba(255,44,4,0.54)" stroke-width="1.4"/><circle cx="757" cy="841" r="2.5" fill="rgba(255,44,4,0.89)"/></g>
  <rect width="1600" height="2000" fill="url(#g1)"/>
  <rect width="1600" height="2000" fill="url(#g2)"/>
</svg>