<svg xmlns="http://www.w3.org/2000/svg" xmlns:xlink="http://www.w3.org/1999/xlink" width="1080" zoomAndPan="magnify" viewBox="0 0 810 809.999993" height="1080" preserveAspectRatio="xMidYMid meet" version="1.0"><defs><clipPath id="ad7fb68981"><path d="M 138.089844 397 L 154.605469 397 L 154.605469 413.882812 L 138.089844 413.882812 Z M 138.089844 397 " clip-rule="nonzero"/></clipPath><clipPath id="849b35274d"><path d="M 146.390625 397.074219 C 141.859375 397.074219 138.179688 400.753906 138.179688 405.28125 C 138.179688 409.8125 141.859375 413.492188 146.390625 413.492188 C 150.917969 413.492188 154.597656 409.824219 154.597656 405.28125 C 154.597656 400.742188 150.917969 397.074219 146.390625 397.074219 " clip-rule="nonzero"/></clipPath><clipPath id="f304d71bac"><path d="M 0.0898438 0 L 16.605469 0 L 16.605469 16.519531 L 0.0898438 16.519531 Z M 0.0898438 0 " clip-rule="nonzero"/></clipPath><clipPath id="4b6dc15a73"><path d="M 8.390625 0.0742188 C 3.859375 0.0742188 0.179688 3.753906 0.179688 8.28125 C 0.179688 12.8125 3.859375 16.492188 8.390625 16.492188 C 12.917969 16.492188 16.597656 12.824219 16.597656 8.28125 C 16.597656 3.742188 12.917969 0.0742188 8.390625 0.0742188 " clip-rule="nonzero"/></clipPath><clipPath id="94a7ffbdf5"><rect x="0" width="17" y="0" height="17"/></clipPath><clipPath id="f27717f5c9"><path d="M 141.660156 422.363281 L 151.03125 422.363281 L 151.03125 432 L 141.660156 432 Z M 141.660156 422.363281 " clip-rule="nonzero"/></clipPath><clipPath id="ded185b53e"><path d="M 146.390625 422.59375 C 143.828125 422.59375 141.75 424.671875 141.75 427.234375 C 141.75 429.792969 143.828125 431.871094 146.390625 431.871094 C 148.949219 431.871094 151.027344 429.792969 151.027344 427.234375 C 151.027344 424.671875 148.949219 422.59375 146.390625 422.59375 " clip-rule="nonzero"/></clipPath><clipPath id="f102073c09"><path d="M 0.660156 0.398438 L 10.03125 0.398438 L 10.03125 10 L 0.660156 10 Z M 0.660156 0.398438 " clip-rule="nonzero"/></clipPath><clipPath id="b68a3c49fd"><path d="M 5.390625 0.640625 C 2.828125 0.640625 0.75 2.714844 0.75 5.277344 C 0.75 7.835938 2.828125 9.914062 5.390625 9.914062 C 7.953125 9.914062 10.027344 7.835938 10.027344 5.277344 C 10.027344 2.714844 7.953125 0.640625 5.390625 0.640625 " clip-rule="nonzero"/></clipPath><clipPath id="ebef2e8b0e"><rect x="0" width="11" y="0" height="11"/></clipPath><clipPath id="35d3a0d82c"><path d="M 159.28125 369.410156 L 177.464844 369.410156 L 177.464844 387.589844 L 159.28125 387.589844 Z M 159.28125 369.410156 " clip-rule="nonzero"/></clipPath><clipPath id="5a8ea20e04"><path d="M 168.375 369.699219 C 161.722656 369.699219 156.371094 375.050781 156.371094 381.699219 C 156.371094 388.351562 161.722656 393.703125 168.375 393.703125 C 175.023438 393.703125 180.378906 388.351562 180.378906 381.699219 C 180.378906 375.050781 175.023438 369.699219 168.375 369.699219 " clip-rule="nonzero"/></clipPath><clipPath id="d99859e0e4"><path d="M 0.570313 0.710938 L 18.753906 0.710938 L 18.753906 18.890625 L 0.570313 18.890625 Z M 0.570313 0.710938 " clip-rule="nonzero"/></clipPath><clipPath id="ee65b90db0"><path d="M 9.664062 1 C 3.011719 1 -2.34375 6.351562 -2.34375 13 C -2.34375 19.648438 3.011719 25 9.664062 25 C 16.3125 25 21.667969 19.648438 21.667969 13 C 21.667969 6.351562 16.3125 1 9.664062 1 " clip-rule="nonzero"/></clipPath><clipPath id="fafcd62f84"><rect x="-3" width="25" y="0" height="25"/></clipPath><clipPath id="2ba9c3c1ab"><path d="M 162 369 L 177 369 L 177 384 L 162 384 Z M 162 369 " clip-rule="nonzero"/></clipPath><clipPath id="28fcc914e8"><path d="M 169.5 369.5 C 163.710938 369.5 159 374.210938 159 380 C 159 385.789062 163.710938 390.5 169.5 390.5 C 175.289062 390.5 180 385.789062 180 380 C 180 374.210938 175.289062 369.5 169.5 369.5 " clip-rule="nonzero"/></clipPath><clipPath id="9b8b7db1dd"><rect x="158" width="23" y="368" height="23"/></clipPath></defs><g clip-path="url(#9b8b7db1dd)"><path fill="#fb4c00" d="M 169.5 375.5 L 173.5 379.5 L 169.5 383.5 L 168 382 L 171 379.5 L 168 377 Z M 169.5 375.5 " fill-rule="evenodd"/></g></svg>
